<mxGraphModel><root><mxCell id="0"/><mxCell id="1" parent="0"/><mxCell id="2" value="User" style="shape=umlLifeline;perimeter=lifelinePerimeter;whiteSpace=wrap;container=1;dropTarget=0;collapsible=0;recursiveResize=0;outlineConnect=0;portConstraint=eastwest;newEdgeStyle={&quot;edgeStyle&quot;:&quot;elbowEdgeStyle&quot;,&quot;elbow&quot;:&quot;vertical&quot;,&quot;curved&quot;:0,&quot;rounded&quot;:0};size=65;" vertex="1" parent="1"><mxGeometry width="150" height="430" as="geometry"/></mxCell><mxCell id="6" value="" style="points=[];perimeter=orthogonalPerimeter;outlineConnect=0;targetShapes=umlLifeline;portConstraint=eastwest;newEdgeStyle={&quot;edgeStyle&quot;:&quot;elbowEdgeStyle&quot;,&quot;elbow&quot;:&quot;vertical&quot;,&quot;curved&quot;:0,&quot;rounded&quot;:0}" vertex="1" parent="2"><mxGeometry x="70" y="217" width="10" height="54" as="geometry"/></mxCell><mxCell id="3" value="System" style="shape=umlLifeline;perimeter=lifelinePerimeter;whiteSpace=wrap;container=1;dropTarget=0;collapsible=0;recursiveResize=0;outlineConnect=0;portConstraint=eastwest;newEdgeStyle={&quot;edgeStyle&quot;:&quot;elbowEdgeStyle&quot;,&quot;elbow&quot;:&quot;vertical&quot;,&quot;curved&quot;:0,&quot;rounded&quot;:0};size=65;" vertex="1" parent="1"><mxGeometry x="238" width="150" height="430" as="geometry"/></mxCell><mxCell id="4" value="" style="points=[];perimeter=orthogonalPerimeter;outlineConnect=0;targetShapes=umlLifeline;portConstraint=eastwest;newEdgeStyle={&quot;edgeStyle&quot;:&quot;elbowEdgeStyle&quot;,&quot;elbow&quot;:&quot;vertical&quot;,&quot;curved&quot;:0,&quot;rounded&quot;:0}" vertex="1" parent="3"><mxGeometry x="70" y="109" width="10" height="226" as="geometry"/></mxCell><mxCell id="5" value="" style="points=[];perimeter=orthogonalPerimeter;outlineConnect=0;targetShapes=umlLifeline;portConstraint=eastwest;newEdgeStyle={&quot;edgeStyle&quot;:&quot;elbowEdgeStyle&quot;,&quot;elbow&quot;:&quot;vertical&quot;,&quot;curved&quot;:0,&quot;rounded&quot;:0}" vertex="1" parent="3"><mxGeometry x="75" y="217" width="10" height="54" as="geometry"/></mxCell><mxCell id="7" value="Start Use Case" style="verticalAlign=bottom;edgeStyle=elbowEdgeStyle;elbow=vertical;curved=0;rounded=0;endArrow=block;" edge="1" parent="1" source="2" target="4"><mxGeometry relative="1" as="geometry"><Array as="points"><mxPoint x="203" y="109"/></Array></mxGeometry></mxCell><mxCell id="8" value="Request for information" style="verticalAlign=bottom;edgeStyle=elbowEdgeStyle;elbow=vertical;curved=0;rounded=0;dashed=1;dashPattern=2 3;endArrow=block;" edge="1" parent="1" source="4" target="2"><mxGeometry relative="1" as="geometry"><Array as="points"><mxPoint x="204" y="163"/></Array></mxGeometry></mxCell><mxCell id="9" value="Provide input data" style="verticalAlign=bottom;edgeStyle=elbowEdgeStyle;elbow=vertical;curved=0;rounded=0;endArrow=block;" edge="1" parent="1" source="6" target="4"><mxGeometry relative="1" as="geometry"><Array as="points"><mxPoint x="201" y="217"/></Array></mxGeometry></mxCell><mxCell id="10" value="Confirmation message" style="verticalAlign=bottom;edgeStyle=elbowEdgeStyle;elbow=vertical;curved=0;rounded=0;dashed=1;dashPattern=2 3;endArrow=block;" edge="1" parent="1" source="4" target="6"><mxGeometry relative="1" as="geometry"><Array as="points"><mxPoint x="206" y="271"/></Array></mxGeometry></mxCell><mxCell id="11" value="Store information" style="verticalAlign=bottom;edgeStyle=elbowEdgeStyle;elbow=vertical;curved=0;rounded=0;dashed=1;dashPattern=2 3;endArrow=block;" edge="1" parent="1" source="4" target="2"><mxGeometry relative="1" as="geometry"><Array as="points"><mxPoint x="204" y="325"/></Array></mxGeometry></mxCell></root></mxGraphModel>